<svg data-v-0dd9719b="" version="1.0" xmlns="http://www.w3.org/2000/svg" xmlns:xlink="http://www.w3.org/1999/xlink" width="100%" height="100%" viewBox="0 0 340.000000 250.000000" preserveAspectRatio="xMidYMid meet" color-interpolation-filters="sRGB" style="margin: auto;"> <rect data-v-0dd9719b="" x="0" y="0" width="100%" height="100%" fill="#fff" fill-opacity="1" class="background"></rect> <rect data-v-0dd9719b="" x="0" y="0" width="100%" height="100%" fill="url(#watermark)" fill-opacity="1" class="watermarklayer"></rect> <g data-v-0dd9719b="" fill="#333" class="icon-text-wrapper icon-svg-group iconsvg" transform="translate(48.56500244140625,92.02064514160156)"><g class="iconsvg-imagesvg" transform="translate(0,0)"><g><rect fill="#333" fill-opacity="0" stroke-width="2" x="0" y="0" width="60" height="65.95870984763538" class="image-rect"></rect> <svg x="0" y="0" width="60" height="65.95870984763538" filtersec="colorsb4754790745" class="image-svg-svg primary" style="overflow: visible;"><svg xmlns="http://www.w3.org/2000/svg" viewBox="0.027584196999669075 0 90.94742584228516 99.97974395751953"><g fill-rule="evenodd"><path d="M22.8 28.3A37.32 37.32 0 1 1 3 77.21 37.3 37.3 0 0 1 22.8 28.3" fill="#0131b9"></path><path d="M30.76 41C1.66 54 1.27 84.61 28.88 99 19 82.51 29.7 65.69 39.64 62.09L69 49.69a28.36 28.36 0 0 0 3.87-1.76c9.34-5.27 13-18.62 6.47-26.86-.05 0-36.22 14.4-48.58 19.93z" fill="#1a85f8" opacity=".8"></path><path d="M29.09 46.11l1-.46 50.15-21.2A19.72 19.72 0 0 0 89.73 0L22.8 28.3A37.31 37.31 0 0 0 28.88 99a29.22 29.22 0 0 1 .21-52.91" fill="#2ddaff" opacity=".8"></path></g></svg></svg> <!----></g></g> <g transform="translate(67,14.834354400634766)"><g data-gra="path-name" fill-rule="" class="tp-name iconsvg-namesvg"><g transform="scale(1)"><g><path d="M20.19-6.48L31.29-6.48 31.29 0 18.61 0Q15.02 0 13.11-0.38L13.11-0.38Q6.42-1.69 3.59-7.84L3.59-7.84Q1.74-11.97 1.74-18.07L1.74-18.07Q1.74-25.36 4.57-29.93L4.57-29.93Q6.64-33.25 10.09-34.77 13.55-36.29 18.99-36.29L18.99-36.29 31.29-36.29 31.29-29.82 19.86-29.82Q14.69-29.82 12.3-27.04L12.3-27.04Q10.28-24.76 10.28-18.77L10.28-18.77Q10.28-10.72 13.39-8.22L13.39-8.22Q15.56-6.48 20.19-6.48L20.19-6.48ZM50.6-13.77L44.4-13.77 44.4 0 36.67 0 36.67-36.29 54.41-36.29Q62.03-36.29 65.02-34.33L65.02-34.33Q67.09-33.03 68.21-30.88 69.32-28.73 69.32-26.17L69.32-26.17Q69.32-21 66.71-18.17L66.71-18.17Q65.08-16.49 62.41-15.62L62.41-15.62Q64.53-14.85 65.62-14.01 66.71-13.17 67.58-11.54L67.58-11.54Q68.23-10.23 68.53-9.03 68.83-7.84 69-5.5L69-5.5Q69.32-1.58 69.87 0L69.87 0 61.22 0Q60.83-1.25 60.4-5.17L60.4-5.17Q60.13-8.33 59.28-10.01 58.44-11.7 56.75-12.68L56.75-12.68Q54.63-13.82 50.6-13.77L50.6-13.77ZM44.4-29.82L44.4-20.24 55.23-20.24Q57.95-20.24 59.09-21.06L59.09-21.06Q60.83-22.26 60.83-25.25L60.83-25.25Q60.83-28.57 58.22-29.49L58.22-29.49Q57.3-29.82 55.23-29.82L55.23-29.82 44.4-29.82ZM81.02 0L71.99 0 87.01-36.29 95.88-36.29 110.89 0 101.86 0 98.33-8.38 84.56-8.38 81.02 0ZM96.64-14.85L91.47-27.53 86.3-14.85 96.64-14.85ZM113.13-6.26L135.98-29.82 113.13-29.82 113.13-36.29 144.63-36.29 144.63-29.6 122.54-6.48 144.63-6.48 144.63 0 113.13 0 113.13-6.26ZM164.6-36.29L177.61-36.29 177.61-29.82 167.54-29.82Q163.62-29.82 161.83-29.27 160.03-28.73 158.83-27.15L158.83-27.15Q158.02-26.06 157.72-24.98 157.42-23.89 157.2-21.28L157.2-21.28 177.61-21.28 177.61-14.8 157.2-14.8Q157.64-10.12 159.98-8.3 162.32-6.48 167.92-6.48L167.92-6.48 177.61-6.48 177.61 0 167.54 0Q163.46 0 160.36-0.49L160.36-0.49Q155.46-1.31 152.58-4.79L152.58-4.79Q148.44-9.79 148.44-18.34L148.44-18.34Q148.44-27.81 154.26-33.08L154.26-33.08Q156.28-34.88 158.53-35.59 160.79-36.29 164.6-36.29L164.6-36.29Z" transform="translate(-1.7400000095367432, 36.290000915527344)"></path></g> <!----> <!----> <!----> <!----> <!----> <!----> <!----></g></g> <!----></g></g><defs v-gra="od"></defs></svg>